<?xml version="1.0" standalone="no"?>
<!DOCTYPE svg PUBLIC "-//W3C//DTD SVG 1.1//EN" "http://www.w3.org/Graphics/SVG/1.1/DTD/svg11.dtd">

<svg width="135" height="50" viewBox="0 0 135 50" preserveAspectRatio="none" 
  xmlns="http://www.w3.org/2000/svg"
  xmlns:xlink="http://www.w3.org/1999/xlink">


<polyline points="0.0, 47.76103288530845 0.8083832335329342, 47.75694767541835 1.6167664670658684, 47.591277349166866 2.4251497005988023, 48.10472884924161 3.2335329341317367, 48.55091475370884 4.041916167664671, 47.83729933051421 4.850299401197605, 48.26502293244824 5.658682634730539, 48.18805907047906 6.467065868263473, 48.59832662015684 7.275449101796408, 49.437323591648536 8.083832335329342, 49.026806655601426 8.892215568862277, 48.03289695452182 9.70059880239521, 47.70730690538629 10.508982035928144, 47.968715418278286 11.317365269461078, 48.09188810230578 12.125748502994012, 47.92845405892711 12.934131736526947, 48.51201138166374 13.74251497005988, 48.14969649954614 14.550898203592816, 49.44870767709369 15.359281437125748, 48.375176703438804 16.167664670658684, 47.93836842287709 16.976047904191617, 45.90254176474052 17.784431137724553, 46.18597437383373 18.592814371257486, 46.343646236316175 19.40119760479042, 46.2027860782608 20.20958083832335, 45.80938835610823 21.017964071856287, 45.078623308552764 21.82634730538922, 43.858792900933004 22.634730538922156, 44.664982598998634 23.443113772455092, 44.59324928672721 24.251497005988025, 45.30015744781152 25.059880239520957, 42.85930373080102 25.868263473053894, 43.98389727063019 26.676646706586826, 44.58937888434316 27.48502994011976, 46.50473756211664 28.29341317365269, 44.51976141132104 29.10179640718563, 46.00703753669196 29.910179640718564, 46.00553206022979 30.718562874251496, 44.65733930809368 31.526946107784433, 44.03566344918937 32.33532934131737, 44.07229126712103 33.1437125748503, 45.90938454485507 33.952095808383234, 45.064620115840775 34.76047904191616, 44.87264936178663 35.568862275449106, 44.11867962211765 36.377245508982035, 45.006133864048444 37.18562874251497, 45.06940508836167 37.9940119760479, 45.73011023413827 38.80239520958084, 45.975671830080344 39.61077844311377, 46.653583554919216 40.4191616766467, 47.012125766020304 41.227544910179645, 48.88951738114639 42.035928143712574, 49.90951025589924 42.84431137724551, 50.0 43.65269461077844, 48.50856197722171 44.461077844311376, 47.82866084297914 45.26946107784431, 47.376564958697706 46.07784431137725, 49.912180912718895 46.886227544910184, 47.655674441331335 47.69461077844311, 48.23427524131494 48.50299401197605, 48.03869812413393 49.31137724550898, 47.72493484099428 50.119760479041915, 45.22516843142898 50.928143712574844, 45.34950960354854 51.73652694610779, 46.6297306155941 52.54491017964072, 45.68881578311174 53.35329341317365, 37.42550355410507 54.16167664670659, 34.67192491851227 54.97005988023952, 34.78276569001463 55.778443113772454, 35.11333178870517 56.58682634730538, 35.32772537102013 57.395209580838326, 33.01118436592683 58.20359281437126, 33.74875621652672 59.01197604790419, 34.08691546197358 59.82035928143713, 32.74258510861281 60.62874251497006, 33.754171626923856 61.43712574850299, 33.7386577794161 62.24550898203593, 36.84585769680955 63.053892215568865, 34.639613951626465 63.862275449101794, 34.374481885405864 64.67065868263474, 30.16454478827193 65.47904191616766, 30.878105414778123 66.2874251497006, 34.863596414093074 67.09580838323353, 37.008989765652295 67.90419161676647, 36.805261775343595 68.7125748502994, 34.04193228389533 69.52095808383233, 35.42390865583814 70.32934131736526, 35.243792529997826 71.13772455089821, 35.63592207296249 71.94610778443113, 33.55307315080292 72.75449101796407, 33.67658015022631 73.562874251497, 29.13247144022957 74.37125748502994, 30.77248265656279 75.17964071856287, 30.264339195510864 75.9880239520958, 30.46829137248294 76.79640718562875, 29.122979435706387 77.60479041916167, 30.587936486313815 78.41317365269461, 29.421677031902295 79.22155688622755, 28.819150749833337 80.02994011976048, 29.212156106947823 80.8383233532934, 28.460474259324858 81.64670658682634, 28.27689566567787 82.45508982035929, 26.668684307325346 83.26347305389221, 20.341866164132803 84.07185628742515, 17.54355019711874 84.88023952095809, 17.12362750049511 85.68862275449102, 17.82279409866016 86.49700598802396, 14.734298053723716 87.30538922155688, 14.303798254967038 88.11377245508983, 14.234230010394233 88.92215568862275, 15.639281809822661 89.73053892215569, 7.759438584773967 90.53892215568862, 6.8182735616953245 91.34730538922156, 4.454036833338397 92.1556886227545, 6.752952591210675 92.96407185628742, 8.301756892904914 93.77245508982037, 6.625328703989797 94.58083832335329, 5.808616327029747 95.38922155688623, 4.366033462917225 96.19760479041915, 3.868768937331347 97.0059880239521, 3.0795221787814393 97.81437125748504, 1.6966455999520222 98.62275449101796, 0.0 99.43113772455091, 1.4260775092949933 100.23952095808383, 3.0058692633606414 101.04790419161677, 4.501252290964633 101.85628742514969, 2.9420020889140734 102.66467065868264, 4.766542479126223 103.47305389221557, 6.715054910705992 104.2814371257485, 7.903211342326978 105.08982035928145, 3.54841494854707 105.89820359281437, 2.593158024674721 106.7065868263473, 2.3514919105460232 107.51497005988023, 4.1923058900655805 108.32335329341318, 2.8753993153666455 109.13173652694611, 3.914309167606729 109.94011976047904, 3.6464075497772135 110.74850299401199, 3.5920610373112782 111.55688622754491, 4.3618027162575945 112.36526946107784, 3.780164811867027 113.17365269461077, 5.5912338527911 113.98203592814372, 8.655007504537217 114.79041916167665, 7.585229503923828 115.59880239520957, 9.632889914076994 116.40718562874252, 9.47425479262924 117.21556886227545, 9.582012084932321 118.02395209580838, 11.471103700420858 118.83233532934132, 9.686383950345475 119.64071856287426, 8.655195125285783 120.44910179640719, 8.462962025633743 121.25748502994011, 8.00043016967048 122.06586826347306, 8.12948477219362 122.87425149700599, 5.836778427762914 123.68263473053892, 5.861682954353386 124.49101796407186, 3.730501799437549 125.2994011976048, 6.2197065220229355 126.10778443113773, 4.880852411863921 126.91616766467065, 4.032872727050404 127.72455089820359, 4.833147982742521 128.5329341317365, 4.916930492470063 129.34131736526948, 4.497114700937315 130.1497005988024, 2.322534789520657 130.95808383233532, 2.6143248285460645 131.76646706586826, 3.236623539651553 132.5748502994012, 5.732151704914726 133.38323353293413, 4.791433269635466 134.19161676646706, 5.928156515507036 135.0, 3.392863576059572" fill="none" stroke="#32ca5b" stroke-width="1.25"/>

</svg>